<?xml version="1.0" encoding="UTF-8"?>
<svg width="16px" height="14px" viewBox="0 0 16 14" version="1.1" xmlns="http://www.w3.org/2000/svg" xmlns:xlink="http://www.w3.org/1999/xlink">
    <title>9EE5DB30-2349-44C3-A26D-DD5CFBD8C294@1x</title>
    <g id="Page-1" stroke="none" stroke-width="1" fill="none" fill-rule="evenodd">
        <g id="All-icons" transform="translate(-10.000000, -677.000000)" fill="#fff">
            <g id="Arrow" transform="translate(6.000000, 672.000000)">
                <path d="M12.9539973,19 C13.1888641,19 13.3960994,18.9146341 13.5757034,18.7439024 L13.5757034,18.7439024 L19.7098705,12.6615854 C19.9032902,12.476626 20,12.2525407 20,11.9893293 C20,11.7261179 19.9032902,11.5020325 19.7098705,11.3170732 L19.7098705,11.3170732 L13.6171505,5.25609756 C13.4237308,5.08536585 13.2026798,5 12.9539973,5 C12.7053149,5 12.4946256,5.09603659 12.3219294,5.28810976 C12.1492333,5.48018293 12.0628852,5.70426829 12.0628852,5.96036585 C12.0628852,6.21646341 12.1595951,6.43699187 12.3530147,6.62195122 L12.3530147,6.62195122 L16.8292988,11.0609756 L4.93398839,11.0609756 C4.67149025,11.0609756 4.44698526,11.1605691 4.26047343,11.3597561 C4.07396159,11.5589431 3.98761352,11.7936992 4.00142921,12.0640244 C4.0152449,12.3058943 4.11195474,12.5121951 4.29155873,12.6829268 C4.47116272,12.8536585 4.67839809,12.9390244 4.91326485,12.9390244 L4.91326485,12.9390244 L16.7878517,12.9390244 L12.3115677,17.3780488 C12.1319637,17.5630081 12.0387078,17.7835366 12.0317999,18.0396341 C12.0248921,18.2957317 12.1112401,18.5162602 12.2908441,18.7012195 C12.4704481,18.9004065 12.6914992,19 12.9539973,19 Z"></path>
            </g>
        </g>
    </g>
</svg>
