<?xml version="1.0" encoding="UTF-8"?>
<svg width="16px" height="16px" viewBox="0 0 16 16" version="1.1" xmlns="http://www.w3.org/2000/svg" xmlns:xlink="http://www.w3.org/1999/xlink">
    <title>A19C679B-11F2-4881-B0B5-6BB06F72A8B7@1x</title>
    <g id="Page-1" stroke="none" stroke-width="1" fill="none" fill-rule="evenodd">
        <g id="All-icons" transform="translate(-246.000000, -928.000000)" fill="#FF3466">
            <g id="Checkbox-Active" transform="translate(242.000000, 924.000000)">
                <path d="M18.2083333,20 C18.6805556,20 19.0972222,19.8194444 19.4583333,19.4583333 C19.8194444,19.0972222 20,18.6805556 20,18.2083333 L20,18.2083333 L20,5.79166667 C20,5.31944444 19.8194444,4.90277778 19.4583333,4.54166667 C19.0972222,4.18055556 18.6805556,4 18.2083333,4 L18.2083333,4 L5.79166667,4 C5.31944444,4 4.90277778,4.18055556 4.54166667,4.54166667 C4.18055556,4.90277778 4,5.31944444 4,5.79166667 L4,5.79166667 L4,18.2083333 C4,18.6805556 4.18055556,19.0972222 4.54166667,19.4583333 C4.90277778,19.8194444 5.31944444,20 5.79166667,20 L5.79166667,20 L18.2083333,20 Z M10.2083333,16.4583333 L5.79166667,12 L7.04166667,10.75 L10.2083333,13.9583333 L16.9583333,7.20833333 L18.2083333,8.45833333 L10.2083333,16.4583333 Z"></path>
            </g>
        </g>
    </g>
</svg>
