<svg width="32" height="32" viewBox="0 0 32 32" fill="none" xmlns="http://www.w3.org/2000/svg">
	<rect width="32" height="32" fill="#FF3466" />
	<path fill-rule="evenodd" clip-rule="evenodd"
		d="M16.0004 22.3996C18.5504 22.3996 20.7879 22.3552 22.7129 22.2663C23.4879 22.2663 24.1441 22.0052 24.6816 21.4829C25.2191 20.9607 25.4879 20.3218 25.4879 19.5663C25.5629 18.3663 25.6004 17.1774 25.6004 15.9996C25.6004 14.8218 25.5629 13.6329 25.4879 12.4329C25.4879 11.6774 25.2191 11.0385 24.6816 10.5163C24.1441 9.99405 23.4879 9.73294 22.7129 9.73294C20.8879 9.64405 18.7629 9.59961 16.3379 9.59961H15.6629C13.2379 9.59961 11.1129 9.64405 9.28789 9.73294C8.51289 9.73294 7.86289 9.99405 7.33789 10.5163C6.81289 11.0385 6.55039 11.6774 6.55039 12.4329C6.45039 14.0329 6.40039 15.2218 6.40039 15.9996C6.40039 17.1774 6.43789 18.3663 6.51289 19.5663C6.51289 20.3218 6.78164 20.9607 7.31914 21.4829C7.85664 22.0052 8.51289 22.2663 9.28789 22.2663C11.2129 22.3552 13.4504 22.3996 16.0004 22.3996ZM14.1629 19.2663V12.6996L19.6004 15.9996L14.1629 19.2663Z"
		fill="white" />
</svg>
