<svg width="32" height="32" viewBox="0 0 32 32" fill="none" xmlns="http://www.w3.org/2000/svg">
	<rect width="32" height="32" fill="#FF3466" />
	<path fill-rule="evenodd" clip-rule="evenodd"
		d="M12.6405 23.4665C19.475 23.4665 23.2145 17.7265 23.2145 12.7449C23.2145 12.5815 23.2145 12.4182 23.203 12.2549C23.9278 11.7182 24.5607 11.0532 25.0669 10.3065C24.3996 10.5982 23.6747 10.8082 22.9268 10.8899C23.6977 10.4232 24.2845 9.6882 24.5607 8.8132C23.8473 9.24487 23.0419 9.55987 22.202 9.7232C21.5231 8.9882 20.5566 8.5332 19.4866 8.5332C17.427 8.5332 15.7701 10.2249 15.7701 12.3015C15.7701 12.5932 15.8047 12.8849 15.8622 13.1649C12.7786 13.0015 10.0287 11.5082 8.19925 9.22154C7.87708 9.78154 7.69298 10.4232 7.69298 11.1232C7.69298 12.4299 8.34882 13.5849 9.34984 14.2615C8.74002 14.2382 8.16473 14.0632 7.66997 13.7832V13.8299C7.66997 15.6615 8.94713 17.1782 10.65 17.5282C10.3393 17.6099 10.0057 17.6565 9.672 17.6565C9.43038 17.6565 9.20026 17.6332 8.97014 17.5982C9.44188 19.0915 10.8111 20.1765 12.4449 20.2115C11.1678 21.2265 9.56845 21.8215 7.83106 21.8215C7.5204 21.8215 7.23275 21.8099 6.93359 21.7749C8.57894 22.8482 10.5349 23.4665 12.6405 23.4665Z"
		fill="white" />
</svg>
