<svg width="32" height="32" viewBox="0 0 32 32" fill="none" xmlns="http://www.w3.org/2000/svg">
	<rect width="32" height="32" fill="#FF3466" />
	<path fill-rule="evenodd" clip-rule="evenodd"
		d="M9.91667 11.5625C11.1146 11.5625 11.8646 10.7708 11.8542 9.78125C11.8438 8.77083 11.1146 8 9.9375 8C8.77083 8 8 8.77083 8 9.78125C8 10.7708 8.73958 11.5625 9.89583 11.5625H9.91667ZM16.9583 23.2916V17.5312C16.9583 17.2187 16.9896 16.9166 17.0729 16.6874C17.3229 16.0729 17.8854 15.4374 18.8333 15.4374C20.0729 15.4374 20.5729 16.3854 20.5729 17.7708V23.2916H24V17.3749C24 14.2083 22.3125 12.7291 20.0521 12.7291C18.2752 12.7291 17.4549 13.6762 16.9954 14.3786L16.9581 14.4353L16.9583 12.9687H13.5312L13.5318 12.9857C13.5319 12.9881 13.532 12.9909 13.5321 12.9939L13.5327 13.0162C13.536 13.1482 13.5442 13.6024 13.5479 14.9382L13.5486 15.2173C13.5487 15.2659 13.5488 15.3154 13.5489 15.366L13.5495 15.85C13.5496 15.9071 13.5496 15.9652 13.5496 16.0244L13.5497 16.7908C13.5497 16.8594 13.5496 16.9292 13.5496 17.0003L13.5489 17.6732C13.547 19.0876 13.5418 20.9201 13.5312 23.2916H16.9583ZM11.6359 23.2917V12.9688H8.19844V23.2917H11.6359Z"
		fill="white" />
</svg>
