<svg width="32" height="32" viewBox="0 0 32 32" fill="none" xmlns="http://www.w3.org/2000/svg">
	<rect width="32" height="32" fill="#FF3466" />
	<path fill-rule="evenodd" clip-rule="evenodd"
		d="M19.7423 25.0052C21.1943 24.9344 22.481 24.6039 23.5434 23.5414C24.6058 22.479 24.9363 21.1923 25.0072 19.7404C25.078 18.4891 25.0662 17.2496 25.0662 15.9983C25.0662 14.747 25.078 13.5075 25.0072 12.2563C24.9363 10.8043 24.6058 9.51758 23.5434 8.45517C22.481 7.39276 21.1943 7.06223 19.7423 6.9914C18.491 6.92057 17.2515 6.93238 16.0003 6.93238C14.749 6.93238 13.5095 6.92057 12.2582 6.9914C10.8062 7.06223 9.51954 7.39276 8.45712 8.45517C7.39471 9.51758 7.06418 10.8043 6.99335 12.2563C6.94023 13.1947 6.93359 14.1265 6.93359 15.0617L6.93433 15.9983C6.93433 17.2496 6.92253 18.4891 6.99335 19.7404C7.06418 21.1923 7.39471 22.479 8.45712 23.5414C9.51954 24.6039 10.8062 24.9344 12.2582 25.0052C13.5095 25.076 14.749 25.0642 16.0003 25.0642C17.2515 25.0642 18.491 25.076 19.7423 25.0052ZM10.6528 23.0693C10.2396 22.904 9.9327 22.7033 9.61397 22.3846C9.29525 22.0659 9.09457 21.759 8.92931 21.3458C8.45712 20.1535 8.56337 17.3204 8.56337 15.9983C8.56337 14.6762 8.45712 11.8431 8.92931 10.6508C9.09457 10.2377 9.29525 9.93075 9.61397 9.61202C9.9327 9.2933 10.2396 9.09262 10.6528 8.92736C11.845 8.45517 14.6781 8.56141 16.0003 8.56141C17.3224 8.56141 20.1555 8.45517 21.3477 8.92736C21.7609 9.09262 22.0678 9.2933 22.3865 9.61202C22.7053 9.93075 22.9059 10.2377 23.0712 10.6508C23.5434 11.8431 23.4372 14.6762 23.4372 15.9983C23.4372 17.3204 23.5434 20.1535 23.0712 21.3458C22.9059 21.759 22.7053 22.0659 22.3865 22.3846C22.0678 22.7033 21.7609 22.904 21.3477 23.0693C20.1555 23.5414 17.3224 23.4352 16.0003 23.4352C14.6781 23.4352 11.845 23.5414 10.6528 23.0693ZM20.8401 12.2444C21.4422 12.2444 21.9262 11.7605 21.9262 11.1584C21.9262 10.5564 21.4422 10.0724 20.8401 10.0724C20.2381 10.0724 19.7541 10.5564 19.7541 11.1584C19.7541 11.7605 20.2381 12.2444 20.8401 12.2444ZM16.0003 20.6493C18.5737 20.6493 20.6513 18.5717 20.6513 15.9983C20.6513 13.4249 18.5737 11.3473 16.0003 11.3473C13.4269 11.3473 11.3492 13.4249 11.3492 15.9983C11.3492 18.5717 13.4269 20.6493 16.0003 20.6493ZM16.0003 19.0203C14.3358 19.0203 12.9783 17.6628 12.9783 15.9983C12.9783 14.3339 14.3358 12.9763 16.0003 12.9763C17.6647 12.9763 19.0222 14.3339 19.0222 15.9983C19.0222 17.6628 17.6647 19.0203 16.0003 19.0203Z"
		fill="white" />
</svg>
