<svg width="36" height="32" viewBox="0 0 36 32" fill="none" xmlns="http://www.w3.org/2000/svg">
	<path d="M8.59944 8.51465V13.5538H13.2415V17.9357H8.55836V24.7276C8.55836 25.6725 8.77745 26.316 9.22933 26.6447C9.66752 26.9733 10.1468 27.1376 10.6398 27.1376C10.9547 27.1376 11.3381 27.0966 11.7763 27.0281C12.2145 26.9596 12.5705 26.8501 12.8718 26.6995L14.1042 31.0813C13.4332 31.3552 12.8033 31.5332 12.2145 31.6428C11.6257 31.7523 10.9684 31.8345 10.2426 31.8756C9.25672 31.9303 8.32557 31.8345 7.47658 31.6154C6.62759 31.3963 5.88815 31.0129 5.27195 30.4651C4.65575 29.9174 4.16279 29.178 3.80676 28.2331C3.45073 27.302 3.27271 26.1243 3.27271 24.7139V17.922H0V13.5401H3.27271V9.08977L8.59944 8.51465Z" fill="#E93664"/>
	<path fill-rule="evenodd" clip-rule="evenodd" d="M22.1045 0.0947266V5.95549H29.6222V13.4869H35.9622V0.0947266H22.1045Z" fill="#E93664"/>
	</svg>
