<svg width="146" height="32" viewBox="0 0 146 32" fill="none" xmlns="http://www.w3.org/2000/svg">
	<path
		d="M8.59944 8.42188V13.461H13.2415V17.8429H8.55836V24.6348C8.55836 25.5797 8.77746 26.2233 9.22934 26.5519C9.66753 26.8806 10.1468 27.0449 10.6398 27.0449C10.9547 27.0449 11.3381 27.0038 11.7763 26.9353C12.2145 26.8669 12.5705 26.7573 12.8718 26.6067L14.1042 30.9886C13.4332 31.2624 12.8033 31.4404 12.2145 31.55C11.6257 31.6595 10.9684 31.7417 10.2426 31.7828C9.25673 31.8376 8.32558 31.7417 7.47659 31.5226C6.6276 31.3035 5.88815 30.9201 5.27195 30.3724C4.65575 29.8246 4.16279 29.0852 3.80676 28.1403C3.45073 27.2092 3.27272 26.0316 3.27272 24.6211V17.8292H0V13.4473H3.25902V8.997L8.59944 8.42188Z"
		fill="white" />
	<path
		d="M22.1139 5.83398V15.5837C22.8807 14.6114 23.7708 13.9405 24.7704 13.5981C25.77 13.2421 26.7423 13.0641 27.6871 13.0641C28.7552 13.0641 29.7411 13.2147 30.6449 13.516C31.5486 13.8172 32.3155 14.3102 32.9591 14.9812C33.6026 15.6521 34.1093 16.5422 34.4653 17.6514C34.8214 18.7605 34.9994 20.1162 34.9994 21.7183V31.3995H29.659V21.732C29.659 20.4585 29.344 19.4863 28.7141 18.8153C28.0842 18.1443 27.2352 17.802 26.1671 17.802C25.058 17.802 24.0994 18.1717 23.2915 18.9249C22.4836 19.6643 22.0865 20.7735 22.0865 22.2387V31.3995H16.7461V5.83398H22.1139Z"
		fill="white" />
	<path
		d="M43.4069 24.086C43.5302 24.9761 44.0094 25.7292 44.8584 26.3591C45.6937 26.989 46.8713 27.304 48.3913 27.304C49.1034 27.304 49.925 27.2081 50.8287 27.0027C51.7325 26.811 52.4993 26.4276 53.1566 25.8525L56.1691 29.1252C55.1832 30.07 53.9645 30.7547 52.5267 31.1655C51.0889 31.5763 49.6785 31.7817 48.2955 31.7817C46.6386 31.7817 45.1734 31.5489 43.8999 31.0833C42.6264 30.6178 41.5446 29.9742 40.6682 29.1252C39.7919 28.2899 39.1209 27.2766 38.6827 26.0989C38.2445 24.9213 38.0117 23.6067 38.0117 22.1689C38.0117 20.7996 38.2445 19.5535 38.6964 18.4033C39.1483 17.253 39.8056 16.2808 40.6408 15.4592C41.4761 14.6513 42.5031 14.0077 43.7082 13.5421C44.9132 13.0765 46.2551 12.8438 47.734 12.8438C49.2951 12.8438 50.7055 13.0765 51.9653 13.5558C53.2251 14.0351 54.2658 14.7334 55.1011 15.6783C55.9364 16.6094 56.5115 17.7871 56.8401 19.1838C57.1688 20.5805 57.1961 22.21 56.8949 24.0586H43.4069V24.086ZM52.1022 20.2519C52.0748 19.7589 51.9379 19.3344 51.6914 18.9784C51.4449 18.6087 51.1163 18.3211 50.7055 18.0883C50.2947 17.8555 49.8291 17.6775 49.3088 17.5543C48.7884 17.431 48.2544 17.3763 47.7066 17.3763C46.6112 17.3763 45.6937 17.6364 44.9406 18.1431C44.1874 18.6497 43.6671 19.3618 43.4069 20.2656H52.1022V20.2519Z"
		fill="white" />
	<path
		d="M74.1893 8.42188V13.461H78.8313V17.8429H74.1482V24.6348C74.1482 25.5797 74.3673 26.2233 74.8192 26.5519C75.2574 26.8806 75.7366 27.0449 76.2296 27.0449C76.5445 27.0449 76.928 27.0038 77.3662 26.9353C77.8043 26.8669 78.1604 26.7573 78.4616 26.6067L79.694 30.9886C79.0231 31.2624 78.3932 31.4404 77.8043 31.55C77.2155 31.6595 76.5582 31.7417 75.8325 31.7828C74.8466 31.8376 73.9154 31.7417 73.0664 31.5226C72.2174 31.3035 71.478 30.9201 70.8618 30.3724C70.2456 29.8246 69.7526 29.0852 69.3966 28.1403C69.0406 27.2092 68.8626 26.0316 68.8626 24.6211V17.8292H65.5898V13.4473H68.8626V8.997L74.1893 8.42188Z"
		fill="#E93664" />
	<path
		d="M96.0041 15.4321L96.1958 13.3507H101.208V31.3986H96.3738L96.0726 29.1391C95.7713 29.6321 95.4016 30.0292 94.936 30.3579C94.4841 30.6865 93.9912 30.9604 93.4708 31.1658C92.9505 31.3712 92.4301 31.5355 91.8961 31.645C91.362 31.7546 90.8691 31.8094 90.4309 31.8094C89.0479 31.8094 87.7744 31.604 86.6241 31.1932C85.4739 30.7824 84.4743 30.1661 83.639 29.3445C82.8037 28.5229 82.1464 27.537 81.6671 26.3731C81.2016 25.2091 80.9551 23.8809 80.9551 22.3883C80.9551 20.9094 81.2016 19.5675 81.6945 18.3898C82.1875 17.2122 82.8721 16.2126 83.7348 15.4184C84.5975 14.6105 85.6108 13.9943 86.7748 13.5698C87.9387 13.1453 89.1985 12.9399 90.5678 12.9673C91.7318 12.9673 92.7998 13.1864 93.7721 13.6109C94.7717 14.0217 95.5111 14.6379 96.0041 15.4321ZM91.1429 17.5956C90.472 17.5956 89.8558 17.7052 89.267 17.9243C88.6918 18.1434 88.1715 18.4583 87.7333 18.8691C87.2814 19.2799 86.9391 19.7866 86.6926 20.3617C86.4461 20.9505 86.3229 21.6215 86.3229 22.3746C86.3229 23.1278 86.4461 23.7987 86.6926 24.3875C86.9391 24.9764 87.2814 25.4693 87.7333 25.8664C88.1715 26.2635 88.6918 26.5785 89.267 26.7976C89.8421 27.0167 90.472 27.1262 91.1429 27.1262C91.8824 27.1262 92.5534 26.9893 93.1696 26.7291C93.7721 26.4552 94.2924 26.1129 94.7032 25.6884C95.1277 25.2639 95.4427 24.771 95.6755 24.2232C95.8946 23.6755 96.0041 23.1278 96.0041 22.5663C96.0041 21.909 95.8946 21.2791 95.6892 20.6903C95.4838 20.0878 95.1688 19.5675 94.758 19.1156C94.3472 18.6637 93.8405 18.294 93.238 18.0201C92.6355 17.7326 91.9372 17.5956 91.1429 17.5956Z"
		fill="white" />
	<path d="M110.778 5.86133H105.465V31.3995H110.778V5.86133Z" fill="white" />
	<path
		d="M120.405 5.86133V20.4448L125.827 13.3927H132.14V13.7213L125.417 21.8689L133.181 31.0024V31.3995H126.759L120.405 23.471V31.3995H115.064V5.86133H120.405Z"
		fill="white" />
	<path fill-rule="evenodd" clip-rule="evenodd"
		d="M132.143 0V5.86077H139.66V13.3921H146V0H132.143Z" fill="#E93664" />
</svg>
