<svg width="88" height="36" viewBox="0 0 88 36" fill="none" xmlns="http://www.w3.org/2000/svg">
	<path fill-rule="evenodd" clip-rule="evenodd"
		d="M78.3906 3.82812V7.776H83.564V12.9602H87.9077V3.82812H78.3906Z" fill="#FF3466" />
	<path fill-rule="evenodd" clip-rule="evenodd"
		d="M38.7871 25.2324H43.1306V7.77734H38.7871V25.2324Z" fill="#2A3045" />
	<path fill-rule="evenodd" clip-rule="evenodd"
		d="M30.5045 7.77616C30.5045 8.62521 30.6359 9.24547 30.6359 9.24547C29.2556 8.17389 27.5497 7.37482 25.3207 7.37482C23.0156 7.37482 20.965 8.17522 19.3936 9.50372C20.3589 10.6315 21.0895 11.9272 21.5313 13.3393C22.3986 12.1159 23.7911 11.3219 25.5048 11.3219C28.4483 11.3219 30.4552 13.3224 30.4552 16.5061C30.4552 19.7733 28.2945 21.6894 25.5048 21.6894C23.8628 21.6894 22.4432 20.9181 21.5494 19.681C21.1107 21.1307 20.3762 22.4505 19.3972 23.5912C20.9698 24.8868 23.0203 25.6375 25.3207 25.6375C27.4985 25.6375 29.4931 24.7683 30.7213 23.6893L30.7884 25.2312H34.848V0.292969H30.5041L30.5045 7.77616Z"
		fill="#2A3045" />
	<path fill-rule="evenodd" clip-rule="evenodd"
		d="M9.36871 21.6898C6.57945 21.6898 4.41814 19.475 4.41814 16.5065C4.41814 13.6542 6.42507 11.3221 9.36871 11.3221C12.3122 11.3221 14.3191 13.6542 14.3191 16.5065C14.3191 19.475 12.1583 21.6898 9.36871 21.6898ZM9.36871 7.375C4.05211 7.375 0.0566406 11.4627 0.0566406 16.5065C0.0566406 21.8085 4.06576 25.6376 9.36871 25.6376C14.6717 25.6376 18.6808 21.8085 18.6808 16.5065C18.6808 11.4627 14.6853 7.375 9.36871 7.375Z"
		fill="#2A3045" />
	<path fill-rule="evenodd" clip-rule="evenodd"
		d="M55.0728 21.0048C52.2832 21.0048 50.4113 19.1313 50.4113 16.1626C50.4113 13.3112 52.1294 11.3212 55.0728 11.3212C58.0165 11.3212 59.7344 13.3112 59.7344 16.1626C59.7344 19.1313 58.1083 21.0048 55.0728 21.0048ZM64.0959 16.1104C64.0959 13.9999 63.4169 12.1271 62.2401 10.6605L64.2734 8.26193L61.0824 5.8457L59.0645 8.22659C57.8376 7.6774 56.5939 7.37411 55.0728 7.37411C49.7562 7.37411 46.0498 11.3855 46.0498 16.4283C46.0498 21.008 48.7366 23.8862 52.9931 24.6581C55.8817 25.182 59.7344 24.9945 59.7344 28.5182C59.7344 30.3581 58.5096 31.651 55.6295 31.651C52.58 31.651 51.0413 29.9504 51.0413 28.1364C51.0413 27.9751 51.0442 27.8305 51.0489 27.683H46.6963C46.6882 27.8322 46.6798 27.9806 46.6798 28.1364C46.6798 32.0978 50.0322 35.6895 55.432 35.6895C61.3857 35.6895 64.0959 32.1263 64.0959 28.8148C64.0959 25.5208 62.4626 23.7049 60.02 22.8365C62.4292 21.7818 64.0959 19.1316 64.0959 16.1104Z"
		fill="#2A3045" />
	<path fill-rule="evenodd" clip-rule="evenodd"
		d="M80.7134 15.559C80.7631 15.8665 80.7923 16.1827 80.7923 16.5063C80.7923 19.4748 78.6316 21.6896 75.8423 21.6896C73.0525 21.6896 70.8918 19.4748 70.8918 16.5063C70.8918 13.6542 72.8987 11.3221 75.8423 11.3221C75.9207 11.3221 75.9958 11.3301 76.073 11.3341V7.37975C75.9962 7.37823 75.9197 7.375 75.8423 7.375C70.5254 7.375 66.5303 11.4625 66.5303 16.5063C66.5303 21.8085 70.5394 25.6376 75.8423 25.6376C81.1447 25.6376 85.1544 21.8085 85.1544 16.5063C85.1544 16.1859 85.1375 15.8705 85.1062 15.559H80.7134Z"
		fill="#2A3045" />
	<path fill-rule="evenodd" clip-rule="evenodd"
		d="M40.9595 0.21875C39.4855 0.21875 38.3779 1.35209 38.3779 2.75014C38.3779 4.22021 39.4895 5.28172 40.9595 5.28172C42.4295 5.28172 43.5411 4.22021 43.5411 2.75014C43.5411 1.35209 42.4333 0.21875 40.9595 0.21875Z"
		fill="#2A3045" />
</svg>
