<svg width="24" height="23" viewBox="0 0 24 23" fill="none" xmlns="http://www.w3.org/2000/svg">
<path fill-rule="evenodd" clip-rule="evenodd" d="M2.875 5.34375C4.67188 5.34375 5.79688 4.15625 5.78125 2.67188C5.76563 1.15625 4.67188 0 2.90625 0C1.15625 0 0 1.15625 0 2.67188C0 4.15625 1.10938 5.34375 2.84375 5.34375H2.875ZM13.4375 22.9374V14.2967C13.4375 13.828 13.4844 13.3749 13.6094 13.0311C13.9844 12.1092 14.8281 11.1561 16.25 11.1561C18.1094 11.1561 18.8594 12.578 18.8594 14.6561V22.9374H24V14.0624C24 9.31236 21.4688 7.09361 18.0781 7.09361C15.4128 7.09361 14.1824 8.51427 13.4932 9.5678L13.4372 9.65298L13.4375 7.45299H8.29688L8.29774 7.47849C8.29785 7.48215 8.29797 7.48625 8.2981 7.49083L8.29899 7.52425C8.30393 7.72229 8.31626 8.40357 8.32184 10.4073L8.32286 10.826C8.32301 10.8988 8.32316 10.9731 8.32329 11.049L8.32426 11.775C8.32434 11.8605 8.3244 11.9477 8.32446 12.0366L8.32455 13.1862C8.3245 13.2891 8.32445 13.3938 8.32438 13.5003L8.32336 14.5097C8.32053 16.6314 8.31272 19.3801 8.29688 22.9374H13.4375ZM5.45508 22.9375V7.45312H0.298828V22.9375H5.45508Z" fill="white"/>
</svg>
