<svg width="51" height="45" viewBox="0 0 51 45" fill="none" xmlns="http://www.w3.org/2000/svg">
<path d="M16.6075 20.8009C18.5846 21.7603 20.1267 23.1994 21.2338 25.1181C22.341 27.0369 22.8946 29.3045 22.8946 31.9209C22.8946 35.6712 21.827 38.7238 19.6917 41.0786C17.5565 43.3462 14.8281 44.48 11.5066 44.48C8.18512 44.48 5.41725 43.3026 3.20292 40.9478C1.06767 38.5929 0 35.584 0 31.9209C0 30.1766 0.197684 28.4323 0.593099 26.688C0.988515 24.9437 1.8585 22.3272 3.20292 18.8386L10.0831 0H21.8269L16.6075 20.8009ZM44.6029 20.8009C46.58 21.7603 48.1221 23.1994 49.2293 25.1181C50.3364 27.0369 50.89 29.3045 50.89 31.9209C50.89 35.6712 49.8224 38.7238 47.6872 41.0786C45.5519 43.3462 42.8235 44.48 39.502 44.48C36.1806 44.48 33.4126 43.3026 31.1983 40.9478C29.063 38.5929 27.9954 35.584 27.9954 31.9209C27.9954 30.1766 28.1931 28.4323 28.5885 26.688C28.984 24.9437 29.8538 22.3272 31.1983 18.8386L38.0785 0H49.8224L44.6029 20.8009Z" fill="#FF3466"/>
</svg>
